<?xml version="1.0"?>
<svg width="32" height="32" xmlns="http://www.w3.org/2000/svg" xmlns:svg="http://www.w3.org/2000/svg" enable-background="new 0 0 32 32" version="1.1" xml:space="preserve">
 <g class="layer">
  <title>Layer 1</title>
  <path d="m4,10l24,0c1.1,0 2,-0.9 2,-2s-0.9,-2 -2,-2l-24,0c-1.1,0 -2,0.9 -2,2s0.9,2 2,2zm24,4l-24,0c-1.1,0 -2,0.9 -2,2s0.9,2 2,2l24,0c1.1,0 2,-0.9 2,-2s-0.9,-2 -2,-2zm0,8l-24,0c-1.1,0 -2,0.9 -2,2s0.9,2 2,2l24,0c1.1,0 2,-0.9 2,-2s-0.9,-2 -2,-2z" fill="#ffffff" id="svg_1"/>
 </g>
</svg>